<?xml version="1.0"?>
<svg xmlns="http://www.w3.org/2000/svg" viewBox="0 0 32 32">
    <path style="fill:#a00;stroke-width:0.1;stroke:#a00;text-indent:0;text-align:start;line-height:normal;text-transform:none;block-progression:tb;-inkscape-font-specification:Bitstream Vera Sans" d="M 15.40625 9 C 13.597917 9 11.902773 9.555024 10.46875 10.4375 L 6.375 13 L 2 13 L 2 15 L 6.65625 15 L 6.9375 15 L 7.1875 14.84375 L 11.53125 12.15625 C 12.697227 11.438726 14.014583 11 15.40625 11 L 21 11 L 21 12 L 21 13 L 21 19 L 21 20 L 21 21 L 19 21 L 19 12 L 17 12 L 17 21 L 15.40625 21 C 14.014583 21 12.697227 20.561274 11.53125 19.84375 L 7.1875 17.15625 L 7 17.03125 L 7 16 L 5 16 L 5 17 L 2 17 L 2 19 L 6.375 19 L 10.46875 21.5625 C 11.902773 22.444976 13.597917 23 15.40625 23 L 22 23 L 23 23 L 23 22 L 23 20 L 27 20 L 28 20 L 28 19 L 28 17 L 30 17 L 30 15 L 28 15 L 28 13 L 28 12 L 27 12 L 23 12 L 23 10 L 23 9 L 22 9 L 15.40625 9 z M 23 14 L 26 14 L 26 18 L 23 18 L 23 14 z" overflow="visible" font-family="Bitstream Vera Sans"/>
</svg>
