<?xml version="1.0"?>
<svg xmlns="http://www.w3.org/2000/svg" viewBox="-3 0 32 32">
    <path style="fill:#a00;stroke-width:0.1;stroke:#a00;text-indent:0;text-align:start;line-height:normal;text-transform:none;block-progression:tb;-inkscape-font-specification:Bitstream Vera Sans" d="M 9.59375 5 L 9.28125 5.28125 L 5.28125 9.28125 L 5 9.59375 L 5 10 L 5 13 C 3.8954305 13 3 13.895431 3 15 C 3 16.104569 3.8954305 17 5 17 L 5 26 L 5 27 L 6 27 L 26 27 L 27 27 L 27 26 L 27 17 C 28.104569 17 29 16.104569 29 15 C 29 13.895431 28.104569 13 27 13 L 27 10 L 27 9.59375 L 26.71875 9.28125 L 22.71875 5.28125 L 22.40625 5 L 22 5 L 10 5 L 9.59375 5 z M 10.4375 7 L 21.5625 7 L 25 10.4375 L 25 25 L 7 25 L 7 15 L 7 10.4375 L 10.4375 7 z M 16 11 C 13.250421 11 11 13.250421 11 16 C 11 18.749579 13.250421 21 16 21 C 18.749579 21 21 18.749579 21 16 C 21 13.250421 18.749579 11 16 11 z M 16 13 C 17.668699 13 19 14.331301 19 16 C 19 17.668699 17.668699 19 16 19 C 14.331301 19 13 17.668699 13 16 C 13 14.331301 14.331301 13 16 13 z" overflow="visible" font-family="Bitstream Vera Sans"/>
</svg>
